Coordinates
version=1
nRows=20
nColumns=38
inDegrees=no

Units are S.I. units (second, meters, Newtons, ...)
If the header above contains a line with 'inDegrees', this indicates whether rotational values are in degrees (yes) or radians (no).

endheader
time	pelvis_tilt	pelvis_list	pelvis_rotation	pelvis_tx	pelvis_ty	pelvis_tz	hip_flexion_r	hip_adduction_r	hip_rotation_r	knee_angle_r	ankle_angle_r	subtalar_angle_r	mtp_angle_r	hip_flexion_l	hip_adduction_l	hip_rotation_l	knee_angle_l	ankle_angle_l	subtalar_angle_l	mtp_angle_l	lumbar_extension	lumbar_bending	lumbar_rotation	arm_flex_r	arm_add_r	arm_rot_r	elbow_flex_r	pro_sup_r	wrist_flex_r	wrist_dev_r	arm_flex_l	arm_add_l	arm_rot_l	elbow_flex_l	pro_sup_l	wrist_flex_l	wrist_dev_l
1.05	-0.0857407	1.27279	1.73932	0.87825	0.436085	1.01791	0.344957	-0.257321	-0.115759	1.03855	-0.468823	0	0	0.60699	0.0443254	-0.137722	0.439572	-0.072702	0	0	0.538999	0.0257211	-0.00620301	0.28793	-0.400754	0.597935	1.1167	0.690317	0	0	-0.146027	-0.447676	-0.0867013	1.22944	0.842546	0	0
1.06	-0.080926	1.27597	1.74365	0.872779	0.446469	1.01993	0.362292	-0.263605	-0.115805	1.0734	-0.514272	0	0	0.602665	0.0492281	-0.127489	0.456591	-0.0764064	0	0	0.528959	0.0236223	-0.0159178	0.293655	-0.400621	0.596198	1.11301	0.693915	0	0	-0.136191	-0.444617	-0.0839386	1.22376	0.8421	0	0
1.07	-0.073965	1.28064	1.74364	0.86767	0.45673	1.02211	0.379636	-0.266523	-0.112138	1.10729	-0.55497	0	0	0.595362	0.0523891	-0.121953	0.471223	-0.0787025	0	0	0.516732	0.0239463	-0.0244493	0.301092	-0.40126	0.596148	1.10944	0.696796	0	0	-0.125948	-0.441642	-0.0813981	1.21791	0.844499	0	0
1.08	-0.0961952	1.27086	1.73092	0.869637	0.471849	1.02277	0.423306	-0.254479	-0.0579852	1.14151	-0.594807	0	0	0.587672	0.0290996	-0.206278	0.478627	-0.0768655	0	0	0.534935	0.0309895	0.00506939	0.29392	-0.39567	0.600122	1.10222	0.700417	0	0	-0.138191	-0.447234	-0.0814747	1.21961	0.844779	0	0
1.09	-0.200286	1.27428	1.75677	0.870578	0.492814	1.02692	0.453848	-0.25713	0.025293	1.15796	-0.640076	0	0	0.529815	0.0109297	-0.398731	0.446849	-0.0873097	0	0	0.547673	0.0520691	0.0798766	0.27516	-0.406984	0.609575	1.10229	0.693555	0	0	-0.156804	-0.436836	-0.0770188	1.21018	0.846127	0	0
1.1	-0.243674	1.19869	1.6619	0.895361	0.51181	1.01649	0.597162	-0.163935	0.213334	1.22242	-0.603828	0	0	0.559612	-0.089657	-0.65631	0.496533	-0.0575416	0	0	0.667192	0.0918334	0.199356	0.226479	-0.378287	0.609561	1.10136	0.681314	0	0	-0.225348	-0.497241	-0.067728	1.25636	0.813603	0	0
1.11	-0.193406	1.28369	1.73801	0.864829	0.514808	1.03127	0.493648	-0.231961	0.0633664	1.2114	-0.61389	0	0	0.49767	0.0044212	-0.438458	0.456436	-0.0843029	0	0	0.530743	0.0639923	0.0927158	0.27766	-0.412371	0.603472	1.09972	0.684228	0	0	-0.133644	-0.438845	-0.0510909	1.19518	0.829253	0	0
1.12	-0.0686746	1.3082	1.69471	0.856789	0.514284	1.03382	0.479926	-0.21342	-0.000257048	1.24224	-0.570921	0	0	0.509132	0.0165288	-0.254312	0.498498	-0.0710377	0	0	0.466976	0.0525648	0.00439041	0.323505	-0.399051	0.601119	1.09014	0.694785	0	0	-0.0943272	-0.441745	-0.0629025	1.19746	0.83617	0	0
1.13	-0.0225807	1.30931	1.68799	0.846669	0.519975	1.03536	0.496099	-0.219802	-0.0318538	1.26172	-0.548457	0	0	0.511496	0.0416277	-0.167139	0.50485	-0.0689013	0	0	0.451945	0.0526	-0.0390258	0.343054	-0.404682	0.607559	1.09033	0.697582	0	0	-0.078846	-0.432244	-0.0672487	1.19242	0.839949	0	0
1.14	-0.0203511	1.31562	1.67779	0.844859	0.531069	1.03804	0.513583	-0.204913	-0.0121761	1.27541	-0.525404	0	0	0.489025	0.0364635	-0.18511	0.499407	-0.0681112	0	0	0.440682	0.0580057	-0.0377247	0.35189	-0.400861	0.613772	1.08274	0.69723	0	0	-0.0767319	-0.431387	-0.0714855	1.19042	0.841476	0	0
1.15	-0.0114905	1.31684	1.66468	0.842034	0.54193	1.04009	0.534978	-0.191931	0.00249327	1.28382	-0.506132	0	0	0.473064	0.0339121	-0.195042	0.49409	-0.0684302	0	0	0.436078	0.0640844	-0.0381369	0.356225	-0.39994	0.61533	1.0791	0.694841	0	0	-0.0741386	-0.429527	-0.0722545	1.18786	0.841993	0	0
1.16	-0.00808975	1.32335	1.65612	0.840043	0.552478	1.04283	0.549895	-0.177319	0.0186989	1.28848	-0.473339	0	0	0.451091	0.0304911	-0.207422	0.487522	-0.0707935	0	0	0.423345	0.0682989	-0.0362253	0.36314	-0.397523	0.617319	1.07368	0.692016	0	0	-0.0674734	-0.429532	-0.0716648	1.1842	0.842266	0	0
1.17	-0.00199223	1.32625	1.64772	0.8375	0.562878	1.04515	0.566863	-0.16478	0.0302967	1.28874	-0.441966	0	0	0.433279	0.0293468	-0.213217	0.481136	-0.0731756	0	0	0.415261	0.0717856	-0.0362646	0.368185	-0.396722	0.618926	1.07029	0.690964	0	0	-0.0613903	-0.429268	-0.0702258	1.18101	0.842677	0	0
1.18	0.00213038	1.32783	1.64019	0.835259	0.573463	1.04726	0.58425	-0.152215	0.041713	1.2861	-0.400064	0	0	0.415615	0.0277575	-0.224028	0.473222	-0.0769259	0	0	0.409694	0.0749417	-0.0348145	0.372218	-0.395952	0.621448	1.06668	0.691091	0	0	-0.0563017	-0.429361	-0.0686718	1.17784	0.843544	0	0
1.19	0.00649625	1.3266	1.63238	0.833095	0.584047	1.04894	0.603848	-0.140156	0.051623	1.27963	-0.359831	0	0	0.401302	0.0262173	-0.236283	0.466313	-0.0809292	0	0	0.408188	0.0778378	-0.0330869	0.374725	-0.394899	0.623003	1.06297	0.691328	0	0	-0.0522657	-0.429948	-0.0664176	1.175	0.844373	0	0
1.2	0.0115498	1.32239	1.62442	0.830883	0.594526	1.05019	0.625825	-0.128815	0.0595271	1.26889	-0.323	0	0	0.390486	0.0251728	-0.247496	0.459336	-0.08527	0	0	0.410732	0.0804844	-0.0317089	0.375913	-0.393858	0.623639	1.05955	0.690871	0	0	-0.048903	-0.430639	-0.0638182	1.17202	0.845198	0	0
1.21	0.016375	1.31583	1.61685	0.828631	0.604882	1.05104	0.64972	-0.118129	0.065839	1.25438	-0.292322	0	0	0.382248	0.0248522	-0.256721	0.452051	-0.0892843	0	0	0.416439	0.0830833	-0.0304044	0.376395	-0.393124	0.624004	1.05652	0.689847	0	0	-0.0459828	-0.43118	-0.0611523	1.1688	0.845117	0	0
1.22	0.0198357	1.3068	1.61143	0.826313	0.615065	1.05143	0.675817	-0.109099	0.0705782	1.23666	-0.269131	0	0	0.377292	0.025626	-0.263141	0.444824	-0.0937171	0	0	0.425305	0.0849939	-0.0296643	0.37642	-0.392592	0.624262	1.05384	0.688401	0	0	-0.0435616	-0.431887	-0.0584249	1.16563	0.84453	0	0
1.23	0.0250133	1.2977	1.60553	0.823759	0.624997	1.05158	0.701391	-0.101539	0.0723022	1.21569	-0.253499	0	0	0.373979	0.026508	-0.267134	0.439707	-0.0973584	0	0	0.433825	0.0872311	-0.0303543	0.376959	-0.392868	0.625113	1.05253	0.687228	0	0	-0.0408164	-0.432345	-0.0559403	1.16284	0.844232	0	0
1.24	0.0307037	1.28782	1.59972	0.821191	0.634722	1.05139	0.7275	-0.0950434	0.0728188	1.19203	-0.241339	0	0	0.372815	0.0273109	-0.270086	0.436727	-0.100679	0	0	0.443204	0.0895653	-0.0316573	0.377657	-0.393598	0.62664	1.05217	0.685734	0	0	-0.0379755	-0.432873	-0.0532848	1.16024	0.843431	0	0
